<?xml version="1.0" encoding="utf-8"?>
<!-- Generator: Adobe Illustrator 21.1.0, SVG Export Plug-In . SVG Version: 6.00 Build 0)  -->
<svg version="1.1" id="Layer_1" xmlns="http://www.w3.org/2000/svg" xmlns:xlink="http://www.w3.org/1999/xlink" x="0px" y="0px"
	 viewBox="0 0 140.9 139.5" style="enable-background:new 0 0 140.9 139.5;" xml:space="preserve">
<style type="text/css">
	.st0{fill:none;}
	.st1{fill:#EEEEEE;}
	.st2{fill:none;stroke:#07AEDA;stroke-width:1.4283;stroke-miterlimit:10;}
	.st3{fill:#009DDC;}
</style>
<g>
	<g>
		<circle class="st1" cx="70.8" cy="70" r="69"/>
	</g>
	<polyline class="st2" points="71.7,93.9 35.3,57.5 87.3,43.6 	"/>
	<line class="st2" x1="97.1" y1="51.6" x2="87.3" y2="88.4"/>
	<path class="st3" d="M122.3,43.9v-8.1l-5-0.8c-0.3-1.1-0.8-2.2-1.7-3.8l3.1-4.1l-5.8-5.5l-4.1,3.1c-1.4-0.8-2.8-1.4-3.8-1.7l-0.6-5
		h-8.1l-0.8,5c-1.4,0.3-2.5,0.8-3.8,1.7l-4.1-3.1l-5.8,5.8l2.8,4.1c-0.8,1.4-1.1,2.5-1.7,3.8l-4.7,0.6V44l5,0.8
		c0.3,1.4,0.8,2.5,1.7,3.8l-2.8,4.1l5.8,5.8l4.1-2.8c1.1,0.6,2.5,1.1,3.8,1.7l0.8,5h8.3l0.8-5c1.4-0.3,2.5-0.8,3.8-1.7l4.1,3.1
		l5.8-5.8l-3.1-4.1c0.8-1.4,1.4-2.8,1.7-3.8L122.3,43.9L122.3,43.9z M100.2,48.1c-4.7,0-8.3-3.6-8.3-8.3s3.6-8.3,8.3-8.3
		s8.3,3.6,8.3,8.3S104.9,48.1,100.2,48.1z"/>
	<g>
		<rect x="74.5" y="119.3" class="st3" width="16.7" height="3.4"/>
		<path class="st3" d="M82.6,79.3c-9.5,0-17.2,7.8-17.2,17.2c0,4.7,2,8.9,4.7,11.9c1.9,2.1,3.2,4.7,4.2,7.4h3.3l-3.4-17.4h16
			l-3.1,17.4h4.1c1.1-2.7,2.5-5.2,4.2-7.4c2.2-3.4,4.1-7.5,4.1-11.9C99.8,86.8,92,79.3,82.6,79.3z"/>
		<polygon class="st3" points="86,101.9 78.7,101.9 81.2,115.8 83.6,115.8 		"/>
		<path class="st3" d="M74.5,126.3v0.7c0,2,1.7,3.6,3.6,3.6h9.5c2,0,3.6-1.7,3.6-3.6v-0.7H74.5z"/>
	</g>
	<circle class="st3" cx="34.7" cy="42.5" r="9.6"/>
	<path class="st3" d="M34.7,52c-7.9,0-14.3,6.4-14.3,14.3v14.3H49V66.3C49,58.4,42.6,52,34.7,52z"/>
</g>
</svg>
