<?xml version="1.0" encoding="utf-8"?>
<!-- Generator: Adobe Illustrator 21.1.0, SVG Export Plug-In . SVG Version: 6.00 Build 0)  -->
<svg version="1.1" id="Layer_1" xmlns="http://www.w3.org/2000/svg" xmlns:xlink="http://www.w3.org/1999/xlink" x="0px" y="0px"
	 viewBox="0 0 140.9 139.5" style="enable-background:new 0 0 140.9 139.5;" xml:space="preserve">
<style type="text/css">
	.st0{fill:#EEEEEE;}
	.st1{fill:#009DDC;}
</style>
<g>
	<circle class="st0" cx="70.8" cy="70" r="69"/>
	<g>
		<circle class="st1" cx="32.3" cy="53.1" r="11.2"/>
		<path class="st1" d="M32.3,64.4c-9.4,0-16.9,7.6-16.9,16.9v16.9h33.8V81.3C49.3,71.9,41.7,64.4,32.3,64.4z"/>
		<circle class="st1" cx="70.8" cy="53.1" r="11.2"/>
		<path class="st1" d="M70.8,64.4c-9.4,0-17,7.6-17,16.9l0,0v16.9h33.8V81.3C87.6,72,80.2,64.4,70.8,64.4z"/>
		<circle class="st1" cx="109.2" cy="53.1" r="11.2"/>
		<path class="st1" d="M109.2,64.4c-9.4,0-16.9,7.6-16.9,16.9v16.9h33.8V81.3C126.1,71.9,118.5,64.4,109.2,64.4z"/>
	</g>
</g>
</svg>
