<?xml version="1.0" encoding="utf-8"?>
<!-- Generator: Adobe Illustrator 21.1.0, SVG Export Plug-In . SVG Version: 6.00 Build 0)  -->
<svg version="1.1" id="Layer_1" xmlns="http://www.w3.org/2000/svg" xmlns:xlink="http://www.w3.org/1999/xlink" x="0px" y="0px"
	 viewBox="0 0 140.9 139.5" style="enable-background:new 0 0 140.9 139.5;" xml:space="preserve">
<style type="text/css">
	.st0{fill:none;}
	.st1{fill:#EEEEEE;}
	.st2{display:none;fill:#C5CAE9;}
	.st3{opacity:0.5;fill:#07AEDA;enable-background:new    ;}
	.st4{fill:#009DDC;}
	.st5{fill:#B5B5B5;}
	.st6{fill:#969696;}
</style>
<g>
	<circle class="st1" cx="70.8" cy="70" r="69"/>
	<circle class="st2" cx="70.8" cy="37.1" r="14.9"/>
	<path class="st3" d="M103.7,102.9c0,1.6-1.4,3.1-3,3.1H41c-1.6,0-3-1.4-3-3.1V61.1c0-1.6,1.4-3.1,3-3.1h59.7c1.6,0,3,1.4,3,3.1
		V102.9z"/>
	<rect x="61.7" y="105.7" class="st4" width="17.8" height="7.4"/>
	<path class="st5" d="M103.7,102.9v-9.1H38v9.1c0,1.6,1.4,3.1,3.1,3.1H101C102.2,105.7,103.7,104.5,103.7,102.9z"/>
	<circle class="st6" cx="70.8" cy="99.9" r="3"/>
	<circle class="st2" cx="37.9" cy="46.1" r="14.9"/>
	<circle class="st2" cx="103.7" cy="46.1" r="14.9"/>
	<circle class="st4" cx="70.8" cy="55" r="2.9"/>
	<circle class="st4" cx="70.8" cy="67" r="2.2"/>
	<circle class="st4" cx="70.8" cy="77.9" r="1.4"/>
	<circle class="st4" cx="81.2" cy="71.4" r="2.2"/>
	<circle class="st4" cx="90.2" cy="62.6" r="2.9"/>
	<circle class="st4" cx="60.3" cy="71.4" r="2.2"/>
	<circle class="st4" cx="51.4" cy="62.6" r="2.9"/>
	<path class="st5" d="M87.3,115.4c0,1.3-1.1,2.3-2.3,2.3H56.7c-1.3,0-2.3-1.1-2.3-2.3c0-1.2,1.1-2.3,2.3-2.3H85
		C86.2,113.3,87.3,114.2,87.3,115.4z"/>
	<g>
		<circle class="st4" cx="47.4" cy="36.6" r="4"/>
		<path class="st4" d="M47.4,40.6c-3.4,0-6,2.7-6,6v6h12v-6C53.4,43.3,50.7,40.6,47.4,40.6z"/>
	</g>
	<g>
		<circle class="st4" cx="71.2" cy="26.4" r="4"/>
		<path class="st4" d="M71.2,30.5c-3.4,0-6,2.7-6,6v6h12v-6C77.2,33.1,74.4,30.5,71.2,30.5z"/>
	</g>
	<g>
		<circle class="st4" cx="96.1" cy="36.2" r="4"/>
		<path class="st4" d="M96.1,40.1c-3.4,0-6,2.7-6,6v6h12v-6C102.1,42.9,99.5,40.1,96.1,40.1z"/>
	</g>
</g>
</svg>
