<?xml version="1.0" encoding="utf-8"?>
<!-- Generator: Adobe Illustrator 21.1.0, SVG Export Plug-In . SVG Version: 6.00 Build 0)  -->
<svg version="1.1" id="Layer_1" xmlns="http://www.w3.org/2000/svg" xmlns:xlink="http://www.w3.org/1999/xlink" x="0px" y="0px"
	 viewBox="0 0 140.9 139.5" style="enable-background:new 0 0 140.9 139.5;" xml:space="preserve">
<style type="text/css">
	.st0{fill:none;}
	.st1{fill:#EEEEEE;}
	.st2{opacity:0.5;fill:#07AEDA;enable-background:new    ;}
	.st3{fill:#009DDC;}
	.st4{fill:#F7F7F7;}
</style>
<g>
	<circle class="st1" cx="70.8" cy="70" r="69"/>
	<g>
		<path class="st2" d="M84.6,70.9l-8-10.6l8-10.6c2.1,0.4,4.1-1,4.5-3.1s-1-4.1-3.1-4.5c-2-0.3-3.9,0.9-4.4,2.8H67.1l-4.6-9.2
			c1.3-1.7,1-4.1-0.7-5.4s-4.1-1-5.4,0.7c-1.1,1.4-1.1,3.3,0,4.6l-4.6,9.2H37.3c-0.6-2-2.6-3.3-4.6-2.7s-3.3,2.6-2.7,4.6
			c0.5,2,2.4,3.2,4.4,2.8l8,10.6l-8,10.6c-2.1-0.4-4.1,1-4.5,3.1c-0.4,2.1,1,4.1,3.1,4.5c2,0.3,3.9-0.9,4.4-2.8h14.5l4.6,9.2
			c-1.3,1.7-1,4.1,0.7,5.4c1.7,1.3,4.1,1,5.4-0.7c1.1-1.4,1.1-3.3,0-4.6l4.6-9.2h14.5c0.6,2,2.6,3.3,4.6,2.7s3.3-2.6,2.7-4.6
			C88.5,71.8,86.6,70.6,84.6,70.9L84.6,70.9z"/>
		<circle class="st3" cx="59.4" cy="60.3" r="13.4"/>
		<circle class="st4" cx="59.4" cy="60.3" r="10.6"/>
		<circle class="st3" cx="96.9" cy="63.6" r="9.9"/>
		<path class="st3" d="M96.9,73.6c-8.2,0-14.9,6.7-14.9,14.9v14.9h29.8V88.5C111.8,80.2,105.1,73.6,96.9,73.6z"/>
	</g>
</g>
</svg>
